<mxfile host="app.diagrams.net" modified="2020-03-15T04:57:50.118Z" agent="Mozilla/5.0 (Windows NT 10.0; WOW64; rv:68.0) Gecko/20100101 Firefox/68.0" etag="PStRlaE18gcIMxRfuqsU" version="12.8.5" type="github">
  <diagram id="02fAPsdJdPxpbcAXxYlI" name="Page-1">
    <mxGraphModel dx="4295" dy="2483" grid="1" gridSize="10" guides="1" tooltips="1" connect="1" arrows="1" fold="1" page="1" pageScale="1" pageWidth="850" pageHeight="1100" math="0" shadow="0">
      <root>
        <mxCell id="0" />
        <mxCell id="1" parent="0" />
        <mxCell id="VCTh-uDd8C6AU_nKBhuK-1" value="" style="rounded=0;whiteSpace=wrap;html=1;strokeColor=#000000;strokeWidth=5;" parent="1" vertex="1">
          <mxGeometry x="-1500" y="-240" width="2900" height="1470" as="geometry" />
        </mxCell>
        <mxCell id="VCTh-uDd8C6AU_nKBhuK-2" value="" style="rounded=0;whiteSpace=wrap;html=1;dashed=1;strokeColor=#82b366;strokeWidth=5;fillColor=#d5e8d4;" parent="1" vertex="1">
          <mxGeometry x="694" y="-126" width="606" height="1266" as="geometry" />
        </mxCell>
        <mxCell id="VCTh-uDd8C6AU_nKBhuK-3" value="" style="rounded=0;whiteSpace=wrap;html=1;dashed=1;strokeColor=#9673a6;strokeWidth=5;fillColor=#e1d5e7;" parent="1" vertex="1">
          <mxGeometry x="-370" y="-126" width="1050" height="1266" as="geometry" />
        </mxCell>
        <mxCell id="VCTh-uDd8C6AU_nKBhuK-4" value="" style="rounded=0;whiteSpace=wrap;html=1;dashed=1;strokeWidth=5;strokeColor=#d6b656;fillColor=#fff2cc;" parent="1" vertex="1">
          <mxGeometry x="-1380" y="-120" width="1000" height="1260" as="geometry" />
        </mxCell>
        <mxCell id="VCTh-uDd8C6AU_nKBhuK-5" value="" style="rounded=1;whiteSpace=wrap;html=1;strokeWidth=5;fontStyle=1;fillColor=#f5f5f5;strokeColor=#666666;" parent="1" vertex="1">
          <mxGeometry x="-1310" y="-10" width="920" height="1040" as="geometry" />
        </mxCell>
        <mxCell id="VCTh-uDd8C6AU_nKBhuK-6" value="&lt;font style=&quot;font-size: 25px&quot;&gt;&lt;span&gt;&lt;font&gt;Virtual Box&lt;/font&gt;&lt;/span&gt; 1 &lt;br&gt;Connected to target 1&lt;br&gt;&lt;/font&gt;" style="rounded=1;whiteSpace=wrap;html=1;strokeWidth=5;fontStyle=1;fillColor=#33FFFF;" parent="1" vertex="1">
          <mxGeometry x="-775" y="20" width="335" height="160" as="geometry" />
        </mxCell>
        <mxCell id="VCTh-uDd8C6AU_nKBhuK-7" value="&lt;font style=&quot;font-size: 25px&quot;&gt;&lt;span&gt;&lt;font&gt;Virtual Box&lt;/font&gt;&lt;/span&gt; 2&lt;br&gt;Connected to target 2&lt;br&gt;&lt;/font&gt;" style="rounded=1;whiteSpace=wrap;html=1;strokeWidth=5;fontStyle=1;fillColor=#33FFFF;" parent="1" vertex="1">
          <mxGeometry x="-770" y="200" width="331" height="160" as="geometry" />
        </mxCell>
        <mxCell id="VCTh-uDd8C6AU_nKBhuK-8" value="&lt;font style=&quot;font-size: 25px&quot;&gt;Target 1&lt;br&gt;&lt;/font&gt;" style="shape=process;whiteSpace=wrap;html=1;backgroundOutline=1;strokeWidth=5;fontStyle=1;fillColor=#FFFF00;strokeColor=#d6b656;gradientColor=#ffd966;" parent="1" vertex="1">
          <mxGeometry x="-20" y="35" width="320" height="130" as="geometry" />
        </mxCell>
        <mxCell id="VCTh-uDd8C6AU_nKBhuK-9" value="&lt;font style=&quot;font-size: 25px&quot;&gt;Target 2&lt;br&gt;&lt;/font&gt;" style="shape=process;whiteSpace=wrap;html=1;backgroundOutline=1;strokeWidth=5;fontStyle=1;fillColor=#FFFF00;strokeColor=#d6b656;gradientColor=#ffd966;" parent="1" vertex="1">
          <mxGeometry x="-15" y="215" width="320" height="130" as="geometry" />
        </mxCell>
        <mxCell id="VCTh-uDd8C6AU_nKBhuK-10" value="&lt;font style=&quot;font-size: 25px;&quot;&gt;Debug Board&lt;br&gt;&lt;/font&gt;" style="rounded=0;whiteSpace=wrap;html=1;strokeWidth=5;fontStyle=1;fillColor=#fad9d5;strokeColor=#ae4132;" parent="1" vertex="1">
          <mxGeometry x="-240" y="54.5" width="180" height="90" as="geometry" />
        </mxCell>
        <mxCell id="VCTh-uDd8C6AU_nKBhuK-11" value="&lt;font style=&quot;font-size: 25px;&quot;&gt;Debug Board&lt;br&gt;&lt;/font&gt;" style="rounded=0;whiteSpace=wrap;html=1;strokeWidth=5;fontStyle=1;fillColor=#fad9d5;strokeColor=#ae4132;" parent="1" vertex="1">
          <mxGeometry x="-240" y="234" width="180" height="90" as="geometry" />
        </mxCell>
        <mxCell id="VCTh-uDd8C6AU_nKBhuK-12" value="&lt;font style=&quot;font-size: 25px;&quot;&gt;12V&lt;br&gt;&amp;nbsp;Power Supply&lt;br&gt;&lt;/font&gt;" style="rounded=1;whiteSpace=wrap;html=1;strokeWidth=5;fontStyle=1" parent="1" vertex="1">
          <mxGeometry x="870" y="207.5" width="200" height="145" as="geometry" />
        </mxCell>
        <mxCell id="VCTh-uDd8C6AU_nKBhuK-13" value="&lt;div style=&quot;font-size: 25px&quot;&gt;&lt;font style=&quot;font-size: 25px&quot;&gt;Renesas E1&lt;/font&gt;&lt;/div&gt;&lt;div style=&quot;font-size: 25px&quot;&gt;&lt;font style=&quot;font-size: 25px&quot;&gt;Debugger&lt;br&gt;&lt;/font&gt;&lt;/div&gt;" style="rounded=0;whiteSpace=wrap;html=1;strokeWidth=5;fontStyle=1;fillColor=#dae8fc;strokeColor=#6c8ebf;" parent="1" vertex="1">
          <mxGeometry x="-345" y="-90" width="170" height="100" as="geometry" />
        </mxCell>
        <mxCell id="VCTh-uDd8C6AU_nKBhuK-14" value="&lt;div style=&quot;font-size: 25px&quot;&gt;&lt;font style=&quot;font-size: 25px&quot;&gt;ABACOM &lt;br&gt;&lt;/font&gt;&lt;/div&gt;&lt;div style=&quot;font-size: 25px&quot;&gt;&lt;font style=&quot;font-size: 25px&quot;&gt;Relay&lt;br&gt;&lt;/font&gt;&lt;/div&gt;" style="rounded=1;whiteSpace=wrap;html=1;strokeWidth=5;fontStyle=1;fillColor=#dae8fc;strokeColor=#6c8ebf;" parent="1" vertex="1">
          <mxGeometry x="370" y="47.5" width="170" height="105" as="geometry" />
        </mxCell>
        <mxCell id="VCTh-uDd8C6AU_nKBhuK-15" value="&lt;div style=&quot;font-size: 25px&quot;&gt;&lt;font style=&quot;font-size: 25px&quot;&gt;ABACOM &lt;br&gt;&lt;/font&gt;&lt;/div&gt;&lt;div style=&quot;font-size: 25px&quot;&gt;&lt;font style=&quot;font-size: 25px&quot;&gt;Relay&lt;br&gt;&lt;/font&gt;&lt;/div&gt;" style="rounded=1;whiteSpace=wrap;html=1;strokeWidth=5;fontStyle=1;fillColor=#dae8fc;strokeColor=#6c8ebf;" parent="1" vertex="1">
          <mxGeometry x="370" y="220" width="170" height="118" as="geometry" />
        </mxCell>
        <mxCell id="VCTh-uDd8C6AU_nKBhuK-16" value="" style="endArrow=classic;html=1;exitX=1;exitY=0.5;entryX=0;entryY=0.5;strokeWidth=5;fontStyle=1;strokeColor=#CC6600;" parent="1" source="VCTh-uDd8C6AU_nKBhuK-10" target="VCTh-uDd8C6AU_nKBhuK-8" edge="1">
          <mxGeometry width="50" height="50" relative="1" as="geometry">
            <mxPoint x="110" y="600" as="sourcePoint" />
            <mxPoint x="160" y="550" as="targetPoint" />
          </mxGeometry>
        </mxCell>
        <mxCell id="VCTh-uDd8C6AU_nKBhuK-17" value="" style="endArrow=classic;html=1;strokeWidth=5;fontStyle=1;strokeColor=#CC6600;" parent="1" source="VCTh-uDd8C6AU_nKBhuK-11" target="VCTh-uDd8C6AU_nKBhuK-9" edge="1">
          <mxGeometry width="50" height="50" relative="1" as="geometry">
            <mxPoint x="-160" y="330" as="sourcePoint" />
            <mxPoint x="-89.28932188134524" y="280" as="targetPoint" />
          </mxGeometry>
        </mxCell>
        <mxCell id="VCTh-uDd8C6AU_nKBhuK-18" value="" style="endArrow=classic;html=1;exitX=0.5;exitY=0;strokeWidth=5;fontStyle=1;strokeColor=#FF0000;entryX=0;entryY=0.5;exitDx=0;exitDy=0;" parent="1" source="VCTh-uDd8C6AU_nKBhuK-8" target="VCTh-uDd8C6AU_nKBhuK-48" edge="1">
          <mxGeometry width="50" height="50" relative="1" as="geometry">
            <mxPoint x="520" y="-60" as="sourcePoint" />
            <mxPoint x="700" as="targetPoint" />
            <Array as="points">
              <mxPoint x="140" />
              <mxPoint x="650" y="-2" />
              <mxPoint x="650" y="168" />
            </Array>
          </mxGeometry>
        </mxCell>
        <mxCell id="VCTh-uDd8C6AU_nKBhuK-19" value="&lt;font style=&quot;font-size: 25px;&quot;&gt;IGN,ACC,BAT&lt;/font&gt;" style="text;html=1;strokeWidth=5;fontStyle=1" parent="1" vertex="1">
          <mxGeometry x="470" y="-50" width="180" height="30" as="geometry" />
        </mxCell>
        <mxCell id="VCTh-uDd8C6AU_nKBhuK-20" value="" style="endArrow=classic;html=1;exitX=0.5;exitY=1;entryX=0;entryY=0.5;strokeWidth=5;fontStyle=1;strokeColor=#FF0000;exitDx=0;exitDy=0;" parent="1" source="VCTh-uDd8C6AU_nKBhuK-9" target="VCTh-uDd8C6AU_nKBhuK-48" edge="1">
          <mxGeometry width="50" height="50" relative="1" as="geometry">
            <mxPoint x="760" y="600" as="sourcePoint" />
            <mxPoint x="810" y="550" as="targetPoint" />
            <Array as="points">
              <mxPoint x="145" y="380" />
              <mxPoint x="650" y="380" />
              <mxPoint x="650" y="280" />
              <mxPoint x="650" y="168" />
            </Array>
          </mxGeometry>
        </mxCell>
        <mxCell id="VCTh-uDd8C6AU_nKBhuK-21" value="" style="endArrow=classic;html=1;exitX=0.75;exitY=1;entryX=0.5;entryY=1;strokeWidth=5;fontStyle=1" parent="1" source="VCTh-uDd8C6AU_nKBhuK-9" target="VCTh-uDd8C6AU_nKBhuK-12" edge="1">
          <mxGeometry width="50" height="50" relative="1" as="geometry">
            <mxPoint x="530" y="650" as="sourcePoint" />
            <mxPoint x="580" y="600" as="targetPoint" />
            <Array as="points">
              <mxPoint x="225" y="460" />
              <mxPoint x="970" y="460" />
            </Array>
          </mxGeometry>
        </mxCell>
        <mxCell id="VCTh-uDd8C6AU_nKBhuK-25" value="&lt;font style=&quot;font-size: 25px&quot;&gt;&lt;span&gt;&lt;font style=&quot;font-size: 25px&quot;&gt;Common Ground &lt;/font&gt;&lt;/span&gt;&lt;/font&gt;" style="text;html=1;resizable=0;points=[];autosize=1;align=left;verticalAlign=top;spacingTop=-4;fontStyle=1" parent="1" vertex="1">
          <mxGeometry x="990" y="742" width="220" height="20" as="geometry" />
        </mxCell>
        <mxCell id="VCTh-uDd8C6AU_nKBhuK-26" value="" style="verticalLabelPosition=bottom;shadow=0;dashed=0;align=center;fillColor=#ffffff;html=1;verticalAlign=top;strokeWidth=5;shape=mxgraph.electrical.signal_sources.signal_ground;glass=0;comic=0;fontSize=50;fontStyle=1" parent="1" vertex="1">
          <mxGeometry x="290" y="460" width="40" height="32" as="geometry" />
        </mxCell>
        <mxCell id="VCTh-uDd8C6AU_nKBhuK-28" value="&lt;span&gt;&lt;font style=&quot;font-size: 25px&quot; color=&quot;#00000&quot;&gt;GND&lt;/font&gt;&lt;/span&gt;" style="text;html=1;resizable=0;points=[];autosize=1;align=left;verticalAlign=top;spacingTop=-4;fontColor=#33001A;fontStyle=1" parent="1" vertex="1">
          <mxGeometry x="905" y="466" width="70" height="20" as="geometry" />
        </mxCell>
        <mxCell id="VCTh-uDd8C6AU_nKBhuK-30" value="" style="endArrow=classic;html=1;strokeColor=#CC6600;strokeWidth=5;fontColor=#33001A;exitX=0.5;exitY=0;fontStyle=1;entryX=0;entryY=0.5;" parent="1" source="VCTh-uDd8C6AU_nKBhuK-6" target="VCTh-uDd8C6AU_nKBhuK-13" edge="1">
          <mxGeometry width="50" height="50" relative="1" as="geometry">
            <mxPoint x="-220" y="-40" as="sourcePoint" />
            <mxPoint x="-380" y="-40" as="targetPoint" />
            <Array as="points">
              <mxPoint x="-608" y="-38" />
            </Array>
          </mxGeometry>
        </mxCell>
        <mxCell id="VCTh-uDd8C6AU_nKBhuK-31" value="" style="endArrow=classic;html=1;strokeColor=#CC6600;strokeWidth=5;fontColor=#33001A;exitX=1;exitY=0.5;entryX=0;entryY=0.5;fontStyle=1" parent="1" source="VCTh-uDd8C6AU_nKBhuK-8" target="VCTh-uDd8C6AU_nKBhuK-14" edge="1">
          <mxGeometry width="50" height="50" relative="1" as="geometry">
            <mxPoint x="220" as="sourcePoint" />
            <mxPoint x="270" y="-50" as="targetPoint" />
            <Array as="points" />
          </mxGeometry>
        </mxCell>
        <mxCell id="VCTh-uDd8C6AU_nKBhuK-32" value="" style="endArrow=classic;startArrow=classic;html=1;strokeColor=#CC6600;strokeWidth=5;fontColor=#33001A;entryX=0;entryY=0.5;fontStyle=1" parent="1" source="VCTh-uDd8C6AU_nKBhuK-6" target="VCTh-uDd8C6AU_nKBhuK-10" edge="1">
          <mxGeometry width="50" height="50" relative="1" as="geometry">
            <mxPoint x="-440" y="150" as="sourcePoint" />
            <mxPoint x="-369.28932188134524" y="100" as="targetPoint" />
          </mxGeometry>
        </mxCell>
        <mxCell id="VCTh-uDd8C6AU_nKBhuK-33" value="" style="endArrow=classic;startArrow=classic;html=1;strokeColor=#CC6600;strokeWidth=5;fontColor=#33001A;exitX=1;exitY=0.5;entryX=0;entryY=0.5;fontStyle=1" parent="1" source="VCTh-uDd8C6AU_nKBhuK-7" target="VCTh-uDd8C6AU_nKBhuK-11" edge="1">
          <mxGeometry width="50" height="50" relative="1" as="geometry">
            <mxPoint x="-410" y="320" as="sourcePoint" />
            <mxPoint x="-360" y="270" as="targetPoint" />
          </mxGeometry>
        </mxCell>
        <mxCell id="VCTh-uDd8C6AU_nKBhuK-34" value="&lt;div&gt;&lt;font style=&quot;font-size: 25px&quot;&gt;Renesas E1&lt;/font&gt;&lt;/div&gt;&lt;div&gt;&lt;font style=&quot;font-size: 25px&quot;&gt;Debugger&lt;br&gt;&lt;/font&gt;&lt;/div&gt;" style="rounded=0;whiteSpace=wrap;html=1;strokeWidth=5;fontStyle=1;fillColor=#dae8fc;strokeColor=#6c8ebf;" parent="1" vertex="1">
          <mxGeometry x="-350" y="380" width="170" height="100" as="geometry" />
        </mxCell>
        <mxCell id="VCTh-uDd8C6AU_nKBhuK-35" value="" style="endArrow=classic;html=1;strokeColor=#CC6600;strokeWidth=5;fontColor=#33001A;exitX=0.5;exitY=1;fontStyle=1;" parent="1" source="VCTh-uDd8C6AU_nKBhuK-7" edge="1">
          <mxGeometry width="50" height="50" relative="1" as="geometry">
            <mxPoint x="-604.5" y="490.3333333333335" as="sourcePoint" />
            <mxPoint x="-350" y="433" as="targetPoint" />
            <Array as="points">
              <mxPoint x="-604" y="433" />
            </Array>
          </mxGeometry>
        </mxCell>
        <mxCell id="VCTh-uDd8C6AU_nKBhuK-36" value="" style="endArrow=classic;html=1;strokeColor=#CC6600;strokeWidth=5;fontColor=#33001A;entryX=0;entryY=0.5;exitX=1.006;exitY=0.501;exitPerimeter=0;fontStyle=1" parent="1" source="VCTh-uDd8C6AU_nKBhuK-9" target="VCTh-uDd8C6AU_nKBhuK-15" edge="1">
          <mxGeometry width="50" height="50" relative="1" as="geometry">
            <mxPoint x="310" y="280" as="sourcePoint" />
            <mxPoint x="373.83333333333394" y="570.3333333333335" as="targetPoint" />
            <Array as="points" />
          </mxGeometry>
        </mxCell>
        <mxCell id="VCTh-uDd8C6AU_nKBhuK-37" value="" style="endArrow=classic;startArrow=classic;html=1;strokeColor=#0000CC;strokeWidth=5;fontColor=#33001A;entryX=0;entryY=0.5;fontStyle=1;" parent="1" target="VCTh-uDd8C6AU_nKBhuK-6" edge="1">
          <mxGeometry width="50" height="50" relative="1" as="geometry">
            <mxPoint x="-930" y="465" as="sourcePoint" />
            <mxPoint x="-790" y="70" as="targetPoint" />
            <Array as="points">
              <mxPoint x="-850" y="465" />
              <mxPoint x="-850" y="100" />
            </Array>
          </mxGeometry>
        </mxCell>
        <mxCell id="VCTh-uDd8C6AU_nKBhuK-38" value="" style="endArrow=classic;startArrow=classic;html=1;strokeColor=#0000CC;strokeWidth=5;fontColor=#33001A;fontStyle=1" parent="1" edge="1">
          <mxGeometry width="50" height="50" relative="1" as="geometry">
            <mxPoint x="-930" y="465" as="sourcePoint" />
            <mxPoint x="-770" y="270" as="targetPoint" />
            <Array as="points">
              <mxPoint x="-820" y="465" />
              <mxPoint x="-820" y="270" />
            </Array>
          </mxGeometry>
        </mxCell>
        <mxCell id="VCTh-uDd8C6AU_nKBhuK-39" value="&lt;div style=&quot;font-size: 25px&quot; align=&quot;center&quot;&gt;&lt;span style=&quot;font-size: 25px&quot;&gt;&lt;font style=&quot;font-size: 25px&quot;&gt;Main Server&lt;br style=&quot;font-size: 25px&quot;&gt;&lt;/font&gt;&lt;/span&gt;&lt;/div&gt;&lt;span&gt;&lt;font&gt;To Control the &lt;br&gt;Toellner Power supply&lt;/font&gt;&lt;/span&gt;" style="rounded=0;whiteSpace=wrap;html=1;strokeWidth=5;fillColor=#00FFFF;fontColor=#33001A;fontSize=25;fontStyle=1" parent="1" vertex="1">
          <mxGeometry x="-1290" y="200" width="360" height="660" as="geometry" />
        </mxCell>
        <mxCell id="VCTh-uDd8C6AU_nKBhuK-40" value="&lt;font style=&quot;font-size: 25px&quot;&gt;Target 3&lt;br&gt;&lt;/font&gt;" style="shape=process;whiteSpace=wrap;html=1;backgroundOutline=1;strokeWidth=5;fontStyle=1;fillColor=#FFFF00;strokeColor=#d6b656;gradientColor=#ffd966;" parent="1" vertex="1">
          <mxGeometry x="-20" y="527.5" width="320" height="130" as="geometry" />
        </mxCell>
        <mxCell id="VCTh-uDd8C6AU_nKBhuK-41" value="&lt;font style=&quot;font-size: 25px;&quot;&gt;Debug Board&lt;br&gt;&lt;/font&gt;" style="rounded=0;whiteSpace=wrap;html=1;strokeWidth=5;fontStyle=1;fillColor=#fad9d5;strokeColor=#ae4132;" parent="1" vertex="1">
          <mxGeometry x="-250" y="547.5" width="180" height="90" as="geometry" />
        </mxCell>
        <mxCell id="VCTh-uDd8C6AU_nKBhuK-42" value="&lt;div style=&quot;font-size: 25px&quot;&gt;&lt;font style=&quot;font-size: 25px&quot;&gt;ABACOM &lt;br&gt;&lt;/font&gt;&lt;/div&gt;&lt;div style=&quot;font-size: 25px&quot;&gt;&lt;font style=&quot;font-size: 25px&quot;&gt;Relay&lt;br&gt;&lt;/font&gt;&lt;/div&gt;" style="rounded=1;whiteSpace=wrap;html=1;strokeWidth=5;fontStyle=1;fillColor=#dae8fc;strokeColor=#6c8ebf;" parent="1" vertex="1">
          <mxGeometry x="370" y="540" width="170" height="105" as="geometry" />
        </mxCell>
        <mxCell id="VCTh-uDd8C6AU_nKBhuK-43" value="&lt;div style=&quot;font-size: 25px&quot;&gt;&lt;font style=&quot;font-size: 25px&quot;&gt;Renesas E1&lt;/font&gt;&lt;/div&gt;&lt;div style=&quot;font-size: 25px&quot;&gt;&lt;font style=&quot;font-size: 25px&quot;&gt;Debugger&lt;br&gt;&lt;/font&gt;&lt;/div&gt;" style="rounded=0;whiteSpace=wrap;html=1;strokeWidth=5;fontStyle=1;fillColor=#dae8fc;strokeColor=#6c8ebf;" parent="1" vertex="1">
          <mxGeometry x="-345" y="672" width="170" height="100" as="geometry" />
        </mxCell>
        <mxCell id="VCTh-uDd8C6AU_nKBhuK-44" value="" style="endArrow=classic;html=1;strokeWidth=5;fontStyle=1;strokeColor=#CC6600;exitX=1;exitY=0.5;entryX=0;entryY=0.5;" parent="1" source="VCTh-uDd8C6AU_nKBhuK-41" target="VCTh-uDd8C6AU_nKBhuK-40" edge="1">
          <mxGeometry width="50" height="50" relative="1" as="geometry">
            <mxPoint x="-150" y="289.99999999999955" as="sourcePoint" />
            <mxPoint x="-79.28932188134513" y="289.99999999999955" as="targetPoint" />
          </mxGeometry>
        </mxCell>
        <mxCell id="VCTh-uDd8C6AU_nKBhuK-45" value="" style="endArrow=classic;html=1;strokeColor=#CC6600;strokeWidth=5;fontColor=#33001A;entryX=0;entryY=0.5;exitX=1.004;exitY=0.556;exitPerimeter=0;fontStyle=1" parent="1" source="VCTh-uDd8C6AU_nKBhuK-40" edge="1">
          <mxGeometry width="50" height="50" relative="1" as="geometry">
            <mxPoint x="230" y="600" as="sourcePoint" />
            <mxPoint x="370" y="600" as="targetPoint" />
            <Array as="points" />
          </mxGeometry>
        </mxCell>
        <mxCell id="VCTh-uDd8C6AU_nKBhuK-46" value="" style="endArrow=classic;html=1;exitX=0.5;exitY=1;entryX=0;entryY=0.5;strokeWidth=5;fontStyle=1;strokeColor=#FF0000;exitDx=0;exitDy=0;" parent="1" target="VCTh-uDd8C6AU_nKBhuK-48" edge="1" source="VCTh-uDd8C6AU_nKBhuK-40">
          <mxGeometry width="50" height="50" relative="1" as="geometry">
            <mxPoint x="539.8571428571431" y="593.5714285714284" as="sourcePoint" />
            <mxPoint x="869.8571428571431" y="593.5714285714287" as="targetPoint" />
            <Array as="points">
              <mxPoint x="140" y="700" />
              <mxPoint x="650" y="700" />
              <mxPoint x="650" y="594" />
              <mxPoint x="650" y="170" />
            </Array>
          </mxGeometry>
        </mxCell>
        <mxCell id="VCTh-uDd8C6AU_nKBhuK-47" value="" style="endArrow=classic;html=1;exitX=0.75;exitY=1;strokeWidth=5;fontStyle=1" parent="1" source="VCTh-uDd8C6AU_nKBhuK-40" edge="1">
          <mxGeometry width="50" height="50" relative="1" as="geometry">
            <mxPoint x="149.85714285714312" y="659.2857142857144" as="sourcePoint" />
            <mxPoint x="970" y="360" as="targetPoint" />
            <Array as="points">
              <mxPoint x="220" y="774" />
              <mxPoint x="970" y="774" />
            </Array>
          </mxGeometry>
        </mxCell>
        <mxCell id="VCTh-uDd8C6AU_nKBhuK-48" value="" style="ellipse;whiteSpace=wrap;html=1;aspect=fixed;strokeWidth=5;fillColor=#FF0000;fontSize=25;fontColor=#33001A;fontStyle=1" parent="1" vertex="1">
          <mxGeometry x="720" y="152.5" width="30" height="30" as="geometry" />
        </mxCell>
        <mxCell id="VCTh-uDd8C6AU_nKBhuK-49" value="" style="endArrow=classic;html=1;strokeColor=#FF0000;strokeWidth=5;fontSize=25;fontColor=#33001A;exitX=0.5;exitY=0;entryX=0;entryY=0.5;fontStyle=1" parent="1" source="VCTh-uDd8C6AU_nKBhuK-48" edge="1">
          <mxGeometry width="50" height="50" relative="1" as="geometry">
            <mxPoint x="760" y="110" as="sourcePoint" />
            <mxPoint x="814" y="34.5" as="targetPoint" />
            <Array as="points">
              <mxPoint x="734" y="35" />
            </Array>
          </mxGeometry>
        </mxCell>
        <mxCell id="VCTh-uDd8C6AU_nKBhuK-50" value="&lt;font style=&quot;font-size: 25px;&quot;&gt;12V&lt;br&gt;&amp;nbsp;Power Supply&lt;br&gt;&lt;/font&gt;" style="rounded=1;whiteSpace=wrap;html=1;strokeWidth=5;fontStyle=1" parent="1" vertex="1">
          <mxGeometry x="865" y="375" width="200" height="145" as="geometry" />
        </mxCell>
        <mxCell id="VCTh-uDd8C6AU_nKBhuK-51" value="&lt;font style=&quot;font-size: 25px;&quot;&gt;12V&lt;br&gt;&amp;nbsp;Power Supply&lt;br&gt;&lt;/font&gt;" style="rounded=1;whiteSpace=wrap;html=1;strokeWidth=5;fontStyle=1" parent="1" vertex="1">
          <mxGeometry x="865" y="555" width="200" height="145" as="geometry" />
        </mxCell>
        <mxCell id="VCTh-uDd8C6AU_nKBhuK-52" value="" style="ellipse;whiteSpace=wrap;html=1;aspect=fixed;strokeWidth=5;fillColor=#0000CC;fontSize=25;fontColor=#33001A;fontStyle=1" parent="1" vertex="1">
          <mxGeometry x="720" y="318.5" width="34" height="34" as="geometry" />
        </mxCell>
        <mxCell id="VCTh-uDd8C6AU_nKBhuK-53" value="" style="endArrow=classic;html=1;strokeColor=#3333FF;strokeWidth=5;fontSize=25;fontColor=#33001A;exitX=0.5;exitY=1;entryX=0;entryY=0.5;fontStyle=1" parent="1" source="VCTh-uDd8C6AU_nKBhuK-15" target="VCTh-uDd8C6AU_nKBhuK-52" edge="1">
          <mxGeometry width="50" height="50" relative="1" as="geometry">
            <mxPoint x="500" y="440" as="sourcePoint" />
            <mxPoint x="550" y="390" as="targetPoint" />
            <Array as="points">
              <mxPoint x="456" y="400" />
              <mxPoint x="680" y="400" />
              <mxPoint x="680" y="336" />
            </Array>
          </mxGeometry>
        </mxCell>
        <mxCell id="VCTh-uDd8C6AU_nKBhuK-54" value="" style="endArrow=classic;html=1;strokeColor=#3333FF;strokeWidth=5;fontSize=25;fontColor=#33001A;exitX=0.525;exitY=0.998;entryX=0.5;entryY=0;exitPerimeter=0;fontStyle=1" parent="1" source="VCTh-uDd8C6AU_nKBhuK-14" target="VCTh-uDd8C6AU_nKBhuK-52" edge="1">
          <mxGeometry width="50" height="50" relative="1" as="geometry">
            <mxPoint x="560" y="220" as="sourcePoint" />
            <mxPoint x="610" y="170" as="targetPoint" />
            <Array as="points">
              <mxPoint x="460" y="190" />
              <mxPoint x="600" y="190" />
              <mxPoint x="600" y="260" />
              <mxPoint x="738" y="260" />
            </Array>
          </mxGeometry>
        </mxCell>
        <mxCell id="VCTh-uDd8C6AU_nKBhuK-55" value="" style="endArrow=classic;html=1;strokeColor=#3333FF;strokeWidth=5;fontSize=25;fontColor=#33001A;exitX=0.5;exitY=0;entryX=0.5;entryY=1;fontStyle=1" parent="1" source="VCTh-uDd8C6AU_nKBhuK-42" target="VCTh-uDd8C6AU_nKBhuK-52" edge="1">
          <mxGeometry width="50" height="50" relative="1" as="geometry">
            <mxPoint x="770" y="450" as="sourcePoint" />
            <mxPoint x="820" y="400" as="targetPoint" />
            <Array as="points">
              <mxPoint x="456" y="500" />
              <mxPoint x="738" y="500" />
              <mxPoint x="738" y="420" />
            </Array>
          </mxGeometry>
        </mxCell>
        <mxCell id="VCTh-uDd8C6AU_nKBhuK-56" value="" style="endArrow=classic;html=1;strokeColor=#3333FF;strokeWidth=5;fontSize=25;fontColor=#33001A;exitX=1;exitY=0.5;entryX=0;entryY=0.5;fontStyle=1" parent="1" source="VCTh-uDd8C6AU_nKBhuK-52" target="VCTh-uDd8C6AU_nKBhuK-12" edge="1">
          <mxGeometry width="50" height="50" relative="1" as="geometry">
            <mxPoint x="800" y="370" as="sourcePoint" />
            <mxPoint x="850" y="320" as="targetPoint" />
            <Array as="points">
              <mxPoint x="810" y="335" />
              <mxPoint x="810" y="280" />
            </Array>
          </mxGeometry>
        </mxCell>
        <mxCell id="VCTh-uDd8C6AU_nKBhuK-57" value="" style="endArrow=classic;html=1;strokeColor=#3333FF;strokeWidth=5;fontSize=25;fontColor=#33001A;exitX=1;exitY=0.5;entryX=0;entryY=0.25;fontStyle=1" parent="1" source="VCTh-uDd8C6AU_nKBhuK-52" target="VCTh-uDd8C6AU_nKBhuK-50" edge="1">
          <mxGeometry width="50" height="50" relative="1" as="geometry">
            <mxPoint x="790" y="430" as="sourcePoint" />
            <mxPoint x="840" y="380" as="targetPoint" />
            <Array as="points">
              <mxPoint x="810" y="336" />
              <mxPoint x="810" y="411" />
            </Array>
          </mxGeometry>
        </mxCell>
        <mxCell id="VCTh-uDd8C6AU_nKBhuK-58" value="" style="endArrow=classic;html=1;strokeColor=#3333FF;strokeWidth=5;fontSize=25;fontColor=#33001A;exitX=1;exitY=0.5;entryX=0;entryY=0.5;fontStyle=1" parent="1" source="VCTh-uDd8C6AU_nKBhuK-52" target="VCTh-uDd8C6AU_nKBhuK-51" edge="1">
          <mxGeometry width="50" height="50" relative="1" as="geometry">
            <mxPoint x="780" y="440" as="sourcePoint" />
            <mxPoint x="830" y="390" as="targetPoint" />
            <Array as="points">
              <mxPoint x="810" y="340" />
              <mxPoint x="810" y="628" />
            </Array>
          </mxGeometry>
        </mxCell>
        <mxCell id="VCTh-uDd8C6AU_nKBhuK-60" value="&lt;div&gt;&lt;b&gt;&lt;font style=&quot;font-size: 25px&quot;&gt;CLEWARE&lt;br&gt;&lt;/font&gt;&lt;/b&gt;&lt;/div&gt;&lt;div&gt;&lt;b&gt;&lt;font style=&quot;font-size: 25px&quot;&gt;Multiplexer&lt;/font&gt;&lt;/b&gt;&lt;/div&gt;" style="text;html=1;fontStyle=1" parent="1" vertex="1">
          <mxGeometry x="1100" y="-90" width="180" height="110" as="geometry" />
        </mxCell>
        <mxCell id="VCTh-uDd8C6AU_nKBhuK-61" value="&lt;span&gt;&lt;font style=&quot;font-size: 25px&quot; color=&quot;#00000&quot;&gt;GND&lt;/font&gt;&lt;/span&gt;" style="text;html=1;resizable=0;points=[];autosize=1;align=left;verticalAlign=top;spacingTop=-4;fontColor=#33001A;fontStyle=1" parent="1" vertex="1">
          <mxGeometry x="220" y="476.07142857142856" width="70" height="20" as="geometry" />
        </mxCell>
        <mxCell id="VCTh-uDd8C6AU_nKBhuK-63" value="&lt;font style=&quot;font-size: 25px&quot;&gt;&#39;N&#39; Target&lt;br&gt;&lt;/font&gt;" style="shape=process;whiteSpace=wrap;html=1;backgroundOutline=1;strokeWidth=5;fontStyle=1;fillColor=#FFFF00;strokeColor=#d6b656;gradientColor=#ffd966;" parent="1" vertex="1">
          <mxGeometry x="-20" y="857" width="320" height="130" as="geometry" />
        </mxCell>
        <mxCell id="VCTh-uDd8C6AU_nKBhuK-64" value="&lt;font style=&quot;font-size: 25px;&quot;&gt;Debug Board&lt;br&gt;&lt;/font&gt;" style="rounded=0;whiteSpace=wrap;html=1;strokeWidth=5;fontStyle=1;fillColor=#fad9d5;strokeColor=#ae4132;" parent="1" vertex="1">
          <mxGeometry x="-250" y="877" width="180" height="90" as="geometry" />
        </mxCell>
        <mxCell id="VCTh-uDd8C6AU_nKBhuK-65" value="&lt;div style=&quot;font-size: 25px&quot;&gt;&lt;font style=&quot;font-size: 25px&quot;&gt;ABACOM &lt;br&gt;&lt;/font&gt;&lt;/div&gt;&lt;div style=&quot;font-size: 25px&quot;&gt;&lt;font style=&quot;font-size: 25px&quot;&gt;Relay&lt;br&gt;&lt;/font&gt;&lt;/div&gt;" style="rounded=1;whiteSpace=wrap;html=1;strokeWidth=5;fontStyle=1;fillColor=#dae8fc;strokeColor=#6c8ebf;" parent="1" vertex="1">
          <mxGeometry x="375" y="869.5" width="170" height="105" as="geometry" />
        </mxCell>
        <mxCell id="VCTh-uDd8C6AU_nKBhuK-66" value="&lt;div style=&quot;font-size: 25px&quot;&gt;&lt;font style=&quot;font-size: 25px&quot;&gt;Renesas E1&lt;/font&gt;&lt;/div&gt;&lt;div style=&quot;font-size: 25px&quot;&gt;&lt;font style=&quot;font-size: 25px&quot;&gt;Debugger&lt;br&gt;&lt;/font&gt;&lt;/div&gt;" style="rounded=0;whiteSpace=wrap;html=1;strokeWidth=5;fontStyle=1;fillColor=#dae8fc;strokeColor=#6c8ebf;" parent="1" vertex="1">
          <mxGeometry x="-355" y="1004" width="170" height="100" as="geometry" />
        </mxCell>
        <mxCell id="VCTh-uDd8C6AU_nKBhuK-67" value="" style="endArrow=classic;html=1;strokeColor=#ae4132;strokeWidth=5;fontColor=#33001A;entryX=0;entryY=0.5;fillColor=#fad9d5;fontStyle=1" parent="1" edge="1">
          <mxGeometry width="50" height="50" relative="1" as="geometry">
            <mxPoint x="300" y="930" as="sourcePoint" />
            <mxPoint x="375" y="929.5" as="targetPoint" />
            <Array as="points" />
          </mxGeometry>
        </mxCell>
        <mxCell id="VCTh-uDd8C6AU_nKBhuK-68" value="" style="endArrow=classic;html=1;exitX=0.75;exitY=1;strokeWidth=5;fontStyle=1;entryX=0.523;entryY=1;entryPerimeter=0;" parent="1" source="VCTh-uDd8C6AU_nKBhuK-63" target="VCTh-uDd8C6AU_nKBhuK-51" edge="1">
          <mxGeometry width="50" height="50" relative="1" as="geometry">
            <mxPoint x="154.85714285714312" y="988.7857142857144" as="sourcePoint" />
            <mxPoint x="975" y="700" as="targetPoint" />
            <Array as="points">
              <mxPoint x="220" y="1104" />
              <mxPoint x="969" y="1104" />
            </Array>
          </mxGeometry>
        </mxCell>
        <mxCell id="VCTh-uDd8C6AU_nKBhuK-69" value="&lt;font style=&quot;font-size: 25px;&quot;&gt;12V&lt;br&gt;&amp;nbsp;Power Supply&lt;br&gt;&lt;/font&gt;" style="rounded=1;whiteSpace=wrap;html=1;strokeWidth=5;fontStyle=1" parent="1" vertex="1">
          <mxGeometry x="870" y="869.5" width="200" height="145" as="geometry" />
        </mxCell>
        <mxCell id="VCTh-uDd8C6AU_nKBhuK-70" value="" style="verticalLabelPosition=bottom;shadow=0;dashed=0;align=center;fillColor=#ffffff;html=1;verticalAlign=top;strokeWidth=5;shape=mxgraph.electrical.signal_sources.signal_ground;glass=0;comic=0;fontSize=50;fontStyle=1" parent="1" vertex="1">
          <mxGeometry x="305" y="772" width="40" height="32" as="geometry" />
        </mxCell>
        <mxCell id="VCTh-uDd8C6AU_nKBhuK-71" value="&lt;span&gt;&lt;font style=&quot;font-size: 25px&quot; color=&quot;#00000&quot;&gt;GND&lt;/font&gt;&lt;/span&gt;" style="text;html=1;resizable=0;points=[];autosize=1;align=left;verticalAlign=top;spacingTop=-4;fontColor=#33001A;fontStyle=1" parent="1" vertex="1">
          <mxGeometry x="235" y="788.0714285714286" width="70" height="20" as="geometry" />
        </mxCell>
        <mxCell id="VCTh-uDd8C6AU_nKBhuK-72" value="" style="verticalLabelPosition=bottom;shadow=0;dashed=0;align=center;fillColor=#ffffff;html=1;verticalAlign=top;strokeWidth=5;shape=mxgraph.electrical.signal_sources.signal_ground;glass=0;comic=0;fontSize=50;fontStyle=1" parent="1" vertex="1">
          <mxGeometry x="300" y="1104" width="40" height="32" as="geometry" />
        </mxCell>
        <mxCell id="VCTh-uDd8C6AU_nKBhuK-73" value="&lt;span&gt;&lt;font style=&quot;font-size: 25px&quot; color=&quot;#00000&quot;&gt;GND&lt;/font&gt;&lt;/span&gt;" style="text;html=1;resizable=0;points=[];autosize=1;align=left;verticalAlign=top;spacingTop=-4;fontColor=#33001A;fontStyle=1" parent="1" vertex="1">
          <mxGeometry x="230" y="1116.0714285714284" width="70" height="20" as="geometry" />
        </mxCell>
        <mxCell id="VCTh-uDd8C6AU_nKBhuK-74" value="&lt;font style=&quot;font-size: 25px&quot;&gt;&lt;span&gt;&lt;font&gt;Virtual Box&lt;/font&gt;&lt;/span&gt; &#39;N&#39;&lt;br&gt;Connected to target &#39;N&#39;&lt;br&gt;&lt;/font&gt;" style="rounded=1;whiteSpace=wrap;html=1;strokeWidth=5;fontStyle=1;fillColor=#33FFFF;" parent="1" vertex="1">
          <mxGeometry x="-775" y="827" width="331" height="160" as="geometry" />
        </mxCell>
        <mxCell id="VCTh-uDd8C6AU_nKBhuK-75" value="&lt;font style=&quot;font-size: 25px&quot;&gt;&lt;span&gt;&lt;font&gt;Virtual Box&lt;/font&gt;&lt;/span&gt; 3&lt;br&gt;Connected to target 3&lt;br&gt;&lt;/font&gt;" style="rounded=1;whiteSpace=wrap;html=1;strokeWidth=5;fontStyle=1;fillColor=#33FFFF;" parent="1" vertex="1">
          <mxGeometry x="-773" y="512" width="331" height="160" as="geometry" />
        </mxCell>
        <mxCell id="VCTh-uDd8C6AU_nKBhuK-76" value="" style="endArrow=classic;startArrow=classic;html=1;strokeColor=#0000CC;strokeWidth=5;fontColor=#33001A;fontStyle=1;entryX=0;entryY=0.5;" parent="1" target="VCTh-uDd8C6AU_nKBhuK-74" edge="1">
          <mxGeometry width="50" height="50" relative="1" as="geometry">
            <mxPoint x="-928" y="465" as="sourcePoint" />
            <mxPoint x="-890" y="280" as="targetPoint" />
            <Array as="points">
              <mxPoint x="-850" y="465" />
              <mxPoint x="-850" y="908" />
            </Array>
          </mxGeometry>
        </mxCell>
        <mxCell id="VCTh-uDd8C6AU_nKBhuK-77" value="" style="endArrow=classic;html=1;exitX=0.5;exitY=1;entryX=0;entryY=0.5;strokeWidth=5;fontStyle=1;strokeColor=#FF0000;exitDx=0;exitDy=0;" parent="1" source="VCTh-uDd8C6AU_nKBhuK-63" target="VCTh-uDd8C6AU_nKBhuK-48" edge="1">
          <mxGeometry width="50" height="50" relative="1" as="geometry">
            <mxPoint x="549.8571428571431" y="603.5714285714284" as="sourcePoint" />
            <mxPoint x="729.666666666667" y="178" as="targetPoint" />
            <Array as="points">
              <mxPoint x="140" y="1050" />
              <mxPoint x="650" y="1050" />
              <mxPoint x="650" y="922" />
              <mxPoint x="650" y="167" />
            </Array>
          </mxGeometry>
        </mxCell>
        <mxCell id="VCTh-uDd8C6AU_nKBhuK-78" value="" style="endArrow=classic;html=1;strokeColor=#3333FF;strokeWidth=5;fontSize=25;fontColor=#33001A;exitX=0.5;exitY=0;entryX=0.5;entryY=1;fontStyle=1" parent="1" source="VCTh-uDd8C6AU_nKBhuK-65" target="VCTh-uDd8C6AU_nKBhuK-52" edge="1">
          <mxGeometry width="50" height="50" relative="1" as="geometry">
            <mxPoint x="464.9411764705883" y="550.4117647058824" as="sourcePoint" />
            <mxPoint x="747.294117647059" y="362.17647058823536" as="targetPoint" />
            <Array as="points">
              <mxPoint x="460" y="830" />
              <mxPoint x="737" y="830" />
              <mxPoint x="737" y="430" />
            </Array>
          </mxGeometry>
        </mxCell>
        <mxCell id="VCTh-uDd8C6AU_nKBhuK-79" value="" style="endArrow=classic;html=1;strokeWidth=5;fontStyle=1;strokeColor=#CC6600;exitX=1;exitY=0.5;entryX=0.006;entryY=0.501;entryPerimeter=0;" parent="1" source="VCTh-uDd8C6AU_nKBhuK-64" target="VCTh-uDd8C6AU_nKBhuK-63" edge="1">
          <mxGeometry width="50" height="50" relative="1" as="geometry">
            <mxPoint x="-149.85714285714266" y="602.8571428571431" as="sourcePoint" />
            <mxPoint x="-79.85714285714266" y="602.8571428571431" as="targetPoint" />
          </mxGeometry>
        </mxCell>
        <mxCell id="VCTh-uDd8C6AU_nKBhuK-80" value="" style="endArrow=classic;html=1;strokeColor=#FF00FF;strokeWidth=5;exitX=0.5;exitY=0;fontStyle=1" parent="1" source="VCTh-uDd8C6AU_nKBhuK-39" edge="1">
          <mxGeometry width="50" height="50" relative="1" as="geometry">
            <mxPoint x="-910" y="-50" as="sourcePoint" />
            <mxPoint x="970" y="-70" as="targetPoint" />
            <Array as="points">
              <mxPoint x="-1110" y="-170" />
              <mxPoint x="970" y="-170" />
            </Array>
          </mxGeometry>
        </mxCell>
        <mxCell id="VCTh-uDd8C6AU_nKBhuK-81" value="" style="endArrow=classic;html=1;strokeColor=#3333FF;strokeWidth=5;fontSize=25;fontColor=#33001A;exitX=1;exitY=0.5;entryX=0;entryY=0.5;fontStyle=1" parent="1" source="VCTh-uDd8C6AU_nKBhuK-52" target="VCTh-uDd8C6AU_nKBhuK-69" edge="1">
          <mxGeometry width="50" height="50" relative="1" as="geometry">
            <mxPoint x="764" y="346" as="sourcePoint" />
            <mxPoint x="875" y="638" as="targetPoint" />
            <Array as="points">
              <mxPoint x="810" y="340" />
              <mxPoint x="810" y="942" />
            </Array>
          </mxGeometry>
        </mxCell>
        <mxCell id="VCTh-uDd8C6AU_nKBhuK-82" value="" style="endArrow=classic;startArrow=classic;html=1;strokeColor=#CC6600;exitX=0.5;exitY=0;entryX=1;entryY=0.5;strokeWidth=5;fontStyle=1" parent="1" source="VCTh-uDd8C6AU_nKBhuK-10" target="VCTh-uDd8C6AU_nKBhuK-13" edge="1">
          <mxGeometry width="50" height="50" relative="1" as="geometry">
            <mxPoint x="-950" y="730" as="sourcePoint" />
            <mxPoint x="-900" y="680" as="targetPoint" />
            <Array as="points">
              <mxPoint x="-150" y="-40" />
            </Array>
          </mxGeometry>
        </mxCell>
        <mxCell id="VCTh-uDd8C6AU_nKBhuK-83" value="" style="endArrow=classic;startArrow=classic;html=1;strokeColor=#CC6600;exitX=1;exitY=0.5;entryX=0.75;entryY=1;strokeWidth=5;fontStyle=1" parent="1" source="VCTh-uDd8C6AU_nKBhuK-34" target="VCTh-uDd8C6AU_nKBhuK-11" edge="1">
          <mxGeometry width="50" height="50" relative="1" as="geometry">
            <mxPoint x="-135" y="430.5" as="sourcePoint" />
            <mxPoint x="-170" y="335.5" as="targetPoint" />
            <Array as="points">
              <mxPoint x="-105" y="430" />
            </Array>
          </mxGeometry>
        </mxCell>
        <mxCell id="VCTh-uDd8C6AU_nKBhuK-84" value="&lt;div&gt;&lt;font style=&quot;font-size: 25px&quot;&gt;TTFis &lt;br&gt;&lt;/font&gt;&lt;/div&gt;" style="text;html=1;resizable=0;points=[];autosize=1;align=left;verticalAlign=top;spacingTop=-4;fontColor=#33001A;fontStyle=1" parent="1" vertex="1">
          <mxGeometry x="-350" y="54.57142857142844" width="80" height="20" as="geometry" />
        </mxCell>
        <mxCell id="VCTh-uDd8C6AU_nKBhuK-85" value="&lt;div&gt;&lt;font style=&quot;font-size: 25px&quot;&gt;TTFis &lt;/font&gt;&lt;/div&gt;" style="text;html=1;resizable=0;points=[];autosize=1;align=left;verticalAlign=top;spacingTop=-4;fontColor=#33001A;fontStyle=1" parent="1" vertex="1">
          <mxGeometry x="-350" y="226.07142857142844" width="80" height="20" as="geometry" />
        </mxCell>
        <mxCell id="VCTh-uDd8C6AU_nKBhuK-86" value="" style="endArrow=classic;startArrow=classic;html=1;strokeColor=#CC6600;exitX=1;exitY=0.5;entryX=0.75;entryY=1;strokeWidth=5;fontStyle=1" parent="1" source="VCTh-uDd8C6AU_nKBhuK-43" edge="1">
          <mxGeometry width="50" height="50" relative="1" as="geometry">
            <mxPoint x="-180" y="743.5" as="sourcePoint" />
            <mxPoint x="-105" y="637.5" as="targetPoint" />
            <Array as="points">
              <mxPoint x="-105" y="722" />
            </Array>
          </mxGeometry>
        </mxCell>
        <mxCell id="VCTh-uDd8C6AU_nKBhuK-87" value="" style="endArrow=classic;startArrow=classic;html=1;strokeColor=#CC6600;exitX=1;exitY=0.5;entryX=0.75;entryY=1;strokeWidth=5;fontStyle=1" parent="1" source="VCTh-uDd8C6AU_nKBhuK-66" edge="1">
          <mxGeometry width="50" height="50" relative="1" as="geometry">
            <mxPoint x="-187.5" y="1073" as="sourcePoint" />
            <mxPoint x="-112.5" y="967" as="targetPoint" />
            <Array as="points">
              <mxPoint x="-112" y="1054" />
            </Array>
          </mxGeometry>
        </mxCell>
        <mxCell id="VCTh-uDd8C6AU_nKBhuK-88" value="&lt;div&gt;&lt;font style=&quot;font-size: 25px&quot;&gt;TTFis &lt;br&gt;&lt;/font&gt;&lt;/div&gt;" style="text;html=1;resizable=0;points=[];autosize=1;align=left;verticalAlign=top;spacingTop=-4;fontColor=#33001A;fontStyle=1" parent="1" vertex="1">
          <mxGeometry x="-355" y="547.0714285714284" width="80" height="20" as="geometry" />
        </mxCell>
        <mxCell id="VCTh-uDd8C6AU_nKBhuK-89" value="&lt;div&gt;&lt;font style=&quot;font-size: 25px&quot;&gt;TTFis &lt;br&gt;&lt;/font&gt;&lt;/div&gt;" style="text;html=1;resizable=0;points=[];autosize=1;align=left;verticalAlign=top;spacingTop=-4;fontColor=#33001A;fontStyle=1" parent="1" vertex="1">
          <mxGeometry x="-360" y="872.0714285714284" width="80" height="20" as="geometry" />
        </mxCell>
        <mxCell id="VCTh-uDd8C6AU_nKBhuK-90" value="" style="endArrow=classic;html=1;strokeColor=#CC6600;strokeWidth=5;fontSize=25;exitX=0.5;exitY=1;entryX=-0.002;entryY=0.467;entryPerimeter=0;" parent="1" source="VCTh-uDd8C6AU_nKBhuK-75" target="VCTh-uDd8C6AU_nKBhuK-43" edge="1">
          <mxGeometry width="50" height="50" relative="1" as="geometry">
            <mxPoint x="-1100" y="810" as="sourcePoint" />
            <mxPoint x="-1050" y="760" as="targetPoint" />
            <Array as="points">
              <mxPoint x="-606" y="718" />
            </Array>
          </mxGeometry>
        </mxCell>
        <mxCell id="VCTh-uDd8C6AU_nKBhuK-91" value="" style="endArrow=classic;html=1;strokeColor=#CC6600;strokeWidth=5;fontSize=25;entryX=0;entryY=0.5;exitX=0.507;exitY=1.006;exitPerimeter=0;" parent="1" source="VCTh-uDd8C6AU_nKBhuK-74" target="VCTh-uDd8C6AU_nKBhuK-66" edge="1">
          <mxGeometry width="50" height="50" relative="1" as="geometry">
            <mxPoint x="-608" y="988" as="sourcePoint" />
            <mxPoint x="-610" y="820" as="targetPoint" />
            <Array as="points">
              <mxPoint x="-608" y="1054" />
            </Array>
          </mxGeometry>
        </mxCell>
        <mxCell id="VCTh-uDd8C6AU_nKBhuK-92" value="" style="endArrow=classic;startArrow=classic;html=1;strokeColor=#0000CC;strokeWidth=5;fontColor=#33001A;fontStyle=1;entryX=0;entryY=0.5;exitX=1.007;exitY=0.402;exitPerimeter=0;" parent="1" source="VCTh-uDd8C6AU_nKBhuK-39" target="VCTh-uDd8C6AU_nKBhuK-75" edge="1">
          <mxGeometry width="50" height="50" relative="1" as="geometry">
            <mxPoint x="-850" y="100" as="sourcePoint" />
            <mxPoint x="-765" y="852" as="targetPoint" />
            <Array as="points">
              <mxPoint x="-820" y="465" />
              <mxPoint x="-820" y="592" />
            </Array>
          </mxGeometry>
        </mxCell>
        <mxCell id="VCTh-uDd8C6AU_nKBhuK-93" value="" style="endArrow=classic;startArrow=classic;html=1;strokeColor=#CC6600;strokeWidth=5;fontColor=#33001A;fontStyle=1;entryX=0;entryY=0.5;" parent="1" target="VCTh-uDd8C6AU_nKBhuK-41" edge="1">
          <mxGeometry width="50" height="50" relative="1" as="geometry">
            <mxPoint x="-442" y="593" as="sourcePoint" />
            <mxPoint x="-260" y="590" as="targetPoint" />
          </mxGeometry>
        </mxCell>
        <mxCell id="VCTh-uDd8C6AU_nKBhuK-94" value="" style="endArrow=classic;startArrow=classic;html=1;strokeColor=#CC6600;strokeWidth=5;fontColor=#33001A;exitX=1;exitY=0.5;fontStyle=1;entryX=0;entryY=0.5;" parent="1" target="VCTh-uDd8C6AU_nKBhuK-64" edge="1">
          <mxGeometry width="50" height="50" relative="1" as="geometry">
            <mxPoint x="-444.42857142857065" y="921.8571428571431" as="sourcePoint" />
            <mxPoint x="-270" y="920" as="targetPoint" />
          </mxGeometry>
        </mxCell>
      </root>
    </mxGraphModel>
  </diagram>
</mxfile>
